<mxfile host="app.diagrams.net" agent="Mozilla/5.0 (Windows NT 10.0; Win64; x64) AppleWebKit/537.36 (KHTML, like Gecko) Chrome/131.0.0.0 Safari/537.36" version="24.8.6">
  <diagram name="Сторінка-1" id="Sha_wGeC0516yg2cosqg">
    <mxGraphModel dx="1050" dy="530" grid="1" gridSize="10" guides="1" tooltips="1" connect="1" arrows="1" fold="1" page="1" pageScale="1" pageWidth="827" pageHeight="1169" math="0" shadow="0">
      <root>
        <mxCell id="0" />
        <mxCell id="1" parent="0" />
        <mxCell id="XECzu_e70cmJaumbDTNM-1" value="&lt;font style=&quot;font-size: 14px;&quot;&gt;End&lt;/font&gt;" style="ellipse;whiteSpace=wrap;html=1;" vertex="1" parent="1">
          <mxGeometry x="354" y="410" width="120" height="50" as="geometry" />
        </mxCell>
        <mxCell id="XECzu_e70cmJaumbDTNM-4" style="edgeStyle=orthogonalEdgeStyle;rounded=0;orthogonalLoop=1;jettySize=auto;html=1;exitX=0.5;exitY=1;exitDx=0;exitDy=0;entryX=0.5;entryY=0;entryDx=0;entryDy=0;" edge="1" parent="1" source="XECzu_e70cmJaumbDTNM-2" target="XECzu_e70cmJaumbDTNM-3">
          <mxGeometry relative="1" as="geometry" />
        </mxCell>
        <mxCell id="XECzu_e70cmJaumbDTNM-2" value="&lt;font style=&quot;font-size: 14px;&quot;&gt;Start&lt;/font&gt;" style="ellipse;whiteSpace=wrap;html=1;" vertex="1" parent="1">
          <mxGeometry x="354" y="40" width="120" height="50" as="geometry" />
        </mxCell>
        <mxCell id="XECzu_e70cmJaumbDTNM-6" style="edgeStyle=orthogonalEdgeStyle;rounded=0;orthogonalLoop=1;jettySize=auto;html=1;exitX=0.5;exitY=1;exitDx=0;exitDy=0;entryX=0.5;entryY=0;entryDx=0;entryDy=0;" edge="1" parent="1" source="XECzu_e70cmJaumbDTNM-3" target="XECzu_e70cmJaumbDTNM-5">
          <mxGeometry relative="1" as="geometry" />
        </mxCell>
        <mxCell id="XECzu_e70cmJaumbDTNM-3" value="&lt;font style=&quot;font-size: 14px;&quot;&gt;ініціалізуємо змінні a, b, c&lt;/font&gt;" style="rounded=1;whiteSpace=wrap;html=1;" vertex="1" parent="1">
          <mxGeometry x="359" y="130" width="110" height="55" as="geometry" />
        </mxCell>
        <mxCell id="XECzu_e70cmJaumbDTNM-8" style="edgeStyle=orthogonalEdgeStyle;rounded=0;orthogonalLoop=1;jettySize=auto;html=1;exitX=0.5;exitY=1;exitDx=0;exitDy=0;entryX=0.5;entryY=0;entryDx=0;entryDy=0;" edge="1" parent="1" source="XECzu_e70cmJaumbDTNM-5" target="XECzu_e70cmJaumbDTNM-7">
          <mxGeometry relative="1" as="geometry" />
        </mxCell>
        <mxCell id="XECzu_e70cmJaumbDTNM-5" value="виконуємо обчислення p, h1, h2, h3" style="rounded=1;whiteSpace=wrap;html=1;" vertex="1" parent="1">
          <mxGeometry x="354" y="220" width="120" height="60" as="geometry" />
        </mxCell>
        <mxCell id="XECzu_e70cmJaumbDTNM-9" style="edgeStyle=orthogonalEdgeStyle;rounded=0;orthogonalLoop=1;jettySize=auto;html=1;exitX=0.5;exitY=1;exitDx=0;exitDy=0;entryX=0.5;entryY=0;entryDx=0;entryDy=0;" edge="1" parent="1" source="XECzu_e70cmJaumbDTNM-7" target="XECzu_e70cmJaumbDTNM-1">
          <mxGeometry relative="1" as="geometry" />
        </mxCell>
        <mxCell id="XECzu_e70cmJaumbDTNM-7" value="&lt;font style=&quot;font-size: 14px;&quot;&gt;виводимо&amp;nbsp;&lt;/font&gt;&lt;div style=&quot;font-size: 14px;&quot;&gt;&lt;font style=&quot;font-size: 14px;&quot;&gt;h1, h2, h3&lt;/font&gt;&lt;/div&gt;" style="shape=parallelogram;perimeter=parallelogramPerimeter;whiteSpace=wrap;html=1;fixedSize=1;" vertex="1" parent="1">
          <mxGeometry x="354" y="310" width="120" height="60" as="geometry" />
        </mxCell>
      </root>
    </mxGraphModel>
  </diagram>
</mxfile>
